<svg width="36" height="32" viewBox="0 0 36 32" fill="none" xmlns="http://www.w3.org/2000/svg">
<path d="M21 3C21 3 19.6728 8.36874 16.5 14.5C13.581 20.1408 4.5 24 4.5 24M25 8C25 8 23.7935 12.8574 20.9091 18.4048C18.2555 23.5083 10 27 10 27M28 14C28 14 26.9543 18.3461 24.4545 23.3095C22.1547 27.8759 15 31 15 31M8 9C8 9 24.3269 26.5063 29 29.5154C33.6731 32.5246 35 20.5351 35 20.5351M1.73223 14.7322C0.755922 15.7085 0.755922 17.2915 1.73223 18.2678C2.70854 19.2441 4.29146 19.2441 5.26777 18.2678C6.24408 17.2915 6.24408 15.7085 5.26777 14.7322C4.29146 13.7559 2.70854 13.7559 1.73223 14.7322ZM4.73223 5.73223C3.75592 6.70854 3.75592 8.29146 4.73223 9.26777C5.70854 10.2441 7.29146 10.2441 8.26777 9.26777C9.24408 8.29146 9.24408 6.70854 8.26777 5.73223C7.29146 4.75592 5.70854 4.75592 4.73223 5.73223ZM12.7322 1.73223C11.7559 2.70854 11.7559 4.29146 12.7322 5.26777C13.7085 6.24408 15.2915 6.24408 16.2678 5.26777C17.2441 4.29146 17.2441 2.70854 16.2678 1.73223C15.2915 0.755922 13.7085 0.755922 12.7322 1.73223Z" stroke="black"/>
</svg>
